PathFileType	4	(X/Y/Z)	G:\マイドライブ\biomec\experimentalData\240725\SJ2.trc
DataRate	CameraRate	NumFrames	NumMarkers	Units	OrigDataRate	OrigDataStartFrame	OrigNumFrames
200.00	200.00	      5	52	mm	200.00	1157	      1851
Frame#	Time	handR			wrRI			wrRO			elbRI			elbRO			shRF			shRU			shRB			handL			wrLI			wrLO			elbLI			elbLO			shLF			shLU			shLB			toeR			baRI			baRO			heelR			anRI			anRO			knRI			knRO			troR			toeL			baLI			baLO			heelL			anLI			anLO			knLI			knLO			troL			head			earR			earL			clav			c7			ribR			ribL			xiph			ASISR			ASISL			PSISR			PSISL			t8			t11			L1			L3			LS			COX			
		X1	Y1	Z1	X2	Y2	Z2	X3	Y3	Z3	X4	Y4	Z4	X5	Y5	Z5	X6	Y6	Z6	X7	Y7	Z7	X8	Y8	Z8	X9	Y9	Z9	X10	Y10	Z10	X11	Y11	Z11	X12	Y12	Z12	X13	Y13	Z13	X14	Y14	Z14	X15	Y15	Z15	X16	Y16	Z16	X17	Y17	Z17	X18	Y18	Z18	X19	Y19	Z19	X20	Y20	Z20	X21	Y21	Z21	X22	Y22	Z22	X23	Y23	Z23	X24	Y24	Z24	X25	Y25	Z25	X26	Y26	Z26	X27	Y27	Z27	X28	Y28	Z28	X29	Y29	Z29	X30	Y30	Z30	X31	Y31	Z31	X32	Y32	Z32	X33	Y33	Z33	X34	Y34	Z34	X35	Y35	Z35	X36	Y36	Z36	X37	Y37	Z37	X38	Y38	Z38	X39	Y39	Z39	X40	Y40	Z40	X41	Y41	Z41	X42	Y42	Z42	X43	Y43	Z43	X44	Y44	Z44	X45	Y45	Z45	X46	Y46	Z46	X47	Y47	Z47	X48	Y48	Z48	X49	Y49	Z49	X50	Y50	Z50	X51	Y51	Z51	X52	Y52	Z52	

1157	5.780	581.48480	736.41650	968.86249	548.62720	667.82251	950.99664	507.71503	707.00812	998.04218	460.50833	565.92639	1160.27881	525.39832	519.48663	1150.71069	697.84204	725.45428	1313.64148	596.24213	692.15186	1343.28345	657.68121	694.25232	1359.99146	568.96777	1010.86249	970.66113	523.11780	1077.71753	948.95258	500.37067	1033.73816	1008.08411	452.49072	1200.38354	1143.55737	519.60339	1244.66455	1123.10876	682.49646	1044.71118	1303.36938	640.11017	1078.29688	1345.80249	568.52661	1061.96631	1320.27209	689.45416	721.13269	46.77889	616.93738	783.83008	34.64127	570.44604	666.40204	41.70153	410.38290	790.01532	41.30482	512.48242	810.04645	112.85809	473.46487	720.90802	104.97693	647.87262	798.52710	447.79800	643.24597	686.63434	447.45251	499.18442	695.50391	827.12219	683.48627	1071.72083	49.53006	613.36981	1021.76453	51.63511	582.35382	1132.96118	46.14598	397.57544	1058.12744	39.84033	501.64667	1014.35492	127.20747	471.12497	1104.04529	111.26488	625.58356	987.84729	456.87387	614.46222	1100.16431	471.44141	474.01926	1040.73389	827.95575	684.70520	904.35254	1623.72217	741.10632	814.49042	1467.64697	737.36603	973.64777	1456.61218	710.23785	889.85760	1290.34485	611.27954	889.80353	1398.43921	600.53162	773.62457	1008.35602	585.06885	984.87799	1004.00897	694.75940	886.05713	1128.45703	564.88983	767.42523	881.59875	544.85980	985.39447	896.67090	403.40051	802.81195	961.82135	397.57111	923.76495	968.19482	490.77301	876.99884	1219.79236	458.14066	870.73773	1101.39221	441.56970	870.42560	1044.58289	417.80292	864.43378	999.78802	387.70627	863.69312	961.62299	338.29935	861.69666	852.87091	
1158	5.785	582.73505	736.24792	973.39014	549.93719	667.73169	955.15472	508.74509	706.94348	1002.24103	460.65366	565.49237	1163.94910	525.77576	519.08618	1154.85181	696.70782	725.30835	1319.46240	594.48370	692.10223	1347.94836	656.05371	693.89484	1364.95117	569.84491	1010.94556	975.23511	524.20959	1077.87354	953.48859	500.95035	1034.32800	1012.78027	452.25504	1200.16724	1147.64807	519.52905	1244.63782	1127.51733	681.11957	1044.51990	1308.66809	638.53363	1077.96240	1350.90271	567.13757	1061.57800	1325.05933	689.35138	721.05756	46.97311	616.90143	783.83356	34.67833	570.44354	666.44568	41.73080	410.34531	790.00092	41.26716	512.27527	809.98676	112.94726	473.16998	720.92767	105.01933	645.10950	799.15930	448.96057	640.44037	687.27692	448.91833	500.49487	695.62543	830.59222	683.41675	1071.74023	49.64474	613.30731	1021.80737	51.68721	582.34460	1132.96887	46.13608	397.55295	1058.14807	39.83149	502.24088	1014.38678	127.10951	470.80661	1103.72632	110.22652	622.76849	988.10358	458.15381	611.06677	1099.86902	472.96524	475.12573	1040.57715	831.35168	683.12152	904.05292	1629.50342	739.70880	814.48907	1472.95068	735.88129	973.46045	1461.73743	708.98145	889.61389	1296.00659	609.65533	889.45654	1403.31799	601.50610	773.42041	1013.09308	586.01587	984.91309	1008.84229	694.81500	885.83832	1133.84106	566.60046	767.53973	885.62518	547.02594	984.65692	899.95306	404.89484	802.89886	965.66962	399.11740	923.70148	971.90698	490.29837	876.85132	1223.61560	458.43832	870.62848	1105.07043	442.29736	870.31580	1048.28552	418.90601	864.29199	1003.46448	388.63712	863.67737	965.78320	339.99167	861.79639	856.82196	
1159	5.790	583.89532	736.15302	977.75952	551.03339	667.46790	959.35382	509.63965	706.80914	1006.07684	460.82959	565.04486	1167.45752	526.20618	518.83154	1158.82104	695.13757	725.04803	1324.66833	593.02167	691.89081	1352.58911	654.23206	693.97717	1370.19556	570.96893	1011.10187	979.81897	526.02167	1077.97388	957.58435	501.73108	1033.66760	1016.91650	452.10864	1200.09363	1151.66187	519.48755	1244.57361	1132.05737	679.98621	1044.26599	1314.14441	637.09137	1077.65479	1355.87585	565.76727	1061.32397	1329.71423	689.20148	721.00989	47.11277	616.86688	783.82111	34.67476	570.42743	666.45984	41.76270	410.34888	789.96600	41.27124	512.03613	809.91870	113.02574	473.30597	720.31671	104.91099	642.02063	799.77063	450.10034	637.79810	688.26978	450.27924	502.30371	695.82721	833.76532	683.37067	1071.78015	49.79450	613.29675	1021.85400	51.72364	582.33099	1132.99695	46.11897	397.53018	1058.16943	39.82779	501.99265	1014.58844	127.27132	470.52255	1103.82275	110.28625	618.29999	987.45160	459.37830	607.65344	1099.59045	474.22107	476.32388	1040.41528	834.69019	681.90015	904.29688	1634.20398	738.19153	814.31781	1478.11426	734.30255	973.22412	1466.74695	707.56342	889.52075	1301.20935	607.78070	889.54535	1408.27771	602.15936	773.22125	1017.63208	586.82892	985.03296	1013.54315	694.66187	885.74579	1139.27991	568.34045	767.80969	889.67303	547.96954	985.24286	904.25769	406.28848	802.79871	969.11493	400.61801	923.78223	975.59998	489.91135	876.56085	1227.48303	458.82419	870.53430	1108.74500	443.02353	870.31494	1051.75354	420.11633	864.38562	1007.05536	390.04181	863.46625	969.18243	341.66730	861.77014	860.56702	
1160	5.795	585.02606	735.96552	981.90656	552.42902	667.48199	963.61737	510.83777	706.72174	1010.01831	460.91364	564.50983	1170.85852	526.48895	518.51221	1162.53430	694.15387	724.90283	1329.92529	591.37115	691.85638	1356.95642	652.60815	693.73865	1374.83203	572.20605	1011.16217	984.14221	526.35437	1077.93396	962.08234	502.96420	1033.73694	1020.54480	451.99725	1200.07275	1155.40161	519.40680	1244.46313	1136.28857	678.77570	1043.92578	1319.23328	635.41040	1077.40588	1360.76526	564.39221	1061.04346	1334.06396	688.79358	720.84796	47.28046	616.84149	783.82697	34.71267	570.44360	666.49109	41.76623	410.34961	789.97925	41.24701	511.78259	809.86365	113.11059	473.06195	720.30615	104.97952	639.75000	800.52924	451.49118	635.06964	689.12927	451.65057	503.83917	695.96332	836.99365	683.32983	1071.80151	49.85875	613.26923	1021.92712	51.74097	582.30457	1133.05273	46.11663	397.55042	1058.18652	39.81492	502.09564	1014.44214	127.45833	470.07886	1103.89685	110.39598	615.54938	987.35944	460.74136	604.06097	1099.47925	475.52515	477.57056	1040.33447	837.86536	680.16205	903.97101	1639.57617	736.67535	814.25317	1483.12915	732.53784	973.31171	1471.63367	706.59882	889.39008	1306.51868	606.37323	889.11328	1412.72241	603.05200	773.26569	1022.04309	587.93317	985.08606	1018.18512	694.56433	885.75903	1144.30225	570.04626	767.75745	893.64948	549.49518	985.33051	908.30847	408.19220	802.85406	972.48633	402.02902	923.68414	978.93353	489.33975	876.32990	1231.33496	459.18994	870.46436	1112.33301	443.98462	870.31104	1055.05579	421.15564	864.32324	1010.38794	392.16336	863.43756	972.21045	343.66406	861.89398	864.23108	
1161	5.800	586.20685	736.09332	985.95618	553.68756	667.39111	967.45642	512.04260	706.63324	1013.68616	461.02585	564.02661	1174.01416	526.64618	518.17090	1166.05640	692.29626	724.72821	1334.90833	589.72516	691.62164	1360.98352	650.81091	693.77368	1379.47253	573.31470	1011.30963	988.49542	527.51862	1078.01453	966.06097	503.41403	1033.64270	1024.97083	451.78751	1200.03430	1159.04541	519.16589	1244.49670	1140.50122	677.54321	1043.72437	1324.29321	633.90454	1077.11243	1365.40759	562.92267	1060.69446	1338.37744	688.72113	720.81525	47.39382	616.82745	783.85785	34.75536	570.43036	666.50659	41.79383	410.32123	789.95557	41.24150	511.59851	809.81689	113.15105	472.80576	720.31323	105.04106	636.73834	801.10004	452.76404	632.22748	689.90344	453.01901	505.50128	696.27435	840.07678	683.31647	1071.83081	49.93725	613.22949	1021.97449	51.74706	583.51868	1132.14221	45.75142	397.54398	1058.20142	39.82038	502.13846	1014.61823	127.92041	469.76810	1103.95911	110.38691	614.00238	988.10938	461.79196	600.58295	1099.11218	476.88019	478.81436	1040.35181	840.99274	678.84509	903.95599	1644.50024	734.98267	813.96381	1487.98474	731.06110	973.12994	1476.43616	705.54694	889.03204	1311.54260	604.74280	888.95502	1417.18726	603.98383	773.34222	1026.42993	588.62848	985.21906	1022.65686	694.45496	885.57391	1149.46106	571.91254	768.14349	897.77264	552.19391	985.22467	912.37952	409.43085	802.97876	975.74261	403.65793	923.76526	982.15198	488.69861	876.27802	1234.97827	459.51764	870.42920	1115.76501	444.82016	870.31323	1058.34106	422.30197	864.34064	1013.70593	392.80243	863.56171	975.79614	345.30231	861.92383	867.60101	
